<?xml version="1.0" encoding="utf-8"?>
<!-- Generator: Adobe Illustrator 25.2.1, SVG Export Plug-In . SVG Version: 6.00 Build 0)  -->
<svg version="1.1" id="Layer_1" xmlns="http://www.w3.org/2000/svg" xmlns:xlink="http://www.w3.org/1999/xlink" x="0px" y="0px"
	 viewBox="0 0 2500 2389" style="enable-background:new 0 0 2500 2389;" xml:space="preserve">
<path d="M174.1,405.2c0-69.2,24.2-126.4,72.7-171.4c48.5-45,111.5-67.5,189-67.5c76.2,0,137.8,22.2,184.9,66.5
	c48.5,45.7,72.7,105.2,72.7,178.6c0,66.5-23.5,121.9-70.6,166.2c-48.5,45.7-112.2,68.5-191.1,68.5h-2.1
	c-76.2,0-137.8-22.8-184.9-68.5S174.1,474.5,174.1,405.2z M201.1,2222.6V835.2h461.1v1387.5H201.1z M917.7,2222.6h461.1v-774.7
	c0-48.5,5.5-85.9,16.6-112.2c19.4-47.1,48.8-86.9,88.3-119.4c39.5-32.5,89-48.8,148.5-48.8c155.1,0,232.6,104.5,232.6,313.6v741.5
	h461.1v-795.5c0-204.9-48.5-360.4-145.4-466.3s-225-158.9-384.3-158.9c-178.6,0-317.8,76.9-417.5,230.6v4.2h-2.1l2.1-4.2V835.2
	H917.7c2.8,44.3,4.2,182.1,4.2,413.3C921.8,1479.7,920.4,1804.5,917.7,2222.6z"/>
</svg>
