<?xml version="1.0" encoding="utf-8"?>
<!-- Generator: Adobe Illustrator 25.2.1, SVG Export Plug-In . SVG Version: 6.00 Build 0)  -->
<svg version="1.1" id="Layer_1" xmlns="http://www.w3.org/2000/svg" xmlns:xlink="http://www.w3.org/1999/xlink" x="0px" y="0px"
	 viewBox="0 0 32 32" style="enable-background:new 0 0 32 32;" xml:space="preserve">
<style type="text/css">
	.st0{opacity:0.36;fill:#D9EDDE;}
	.st1{fill:url(#SVGID_1_);}
	.st2{fill:url(#SVGID_2_);}
</style>
<path class="st0" d="M10.8,15.2c-1.4,0.8-3,1.3-4.4,2.2c-1.3,0.9-2.2,2.2-2.6,3.6c-0.4,1.5-0.1,3.1,0.8,4.4c1.4,1.9,3.9,2.5,6.3,3
	c2.2,0.4,4.4,0.9,6.7,1.3c0.9,0.2,1.7,0.4,2.6,0.3c1.8,0,3.5-0.9,4.8-2.3c1.3-1.3,2.1-3,2.5-4.7c0.7-2.5,0.7-5.2,0.1-7.8
	c-0.3-1.5-0.9-2.9-1.5-4.4c-0.7-1.7-1.5-3.4-2.5-4.8c-1-1.4-2.2-2.6-3.7-3.4c-1.1-0.6-3-1-3.7,0.3c-0.3,0.5-0.3,1.1-0.3,1.6
	c0,0.8,0.1,1.7,0,2.5c-0.1,1.6-0.6,3.1-1.4,4.4c-0.8,1.3-1.9,2.5-3.2,3.3C11.1,15,11,15.1,10.8,15.2z"/>
<g>
	<linearGradient id="SVGID_1_" gradientUnits="userSpaceOnUse" x1="1.7675" y1="15.9877" x2="30.2325" y2="15.9877">
		<stop  offset="0" style="stop-color:#60B80D"/>
		<stop  offset="1" style="stop-color:#1C7CC9"/>
	</linearGradient>
	<path class="st1" d="M28.5,24.9V22c0-0.2,0-0.4-0.1-0.6c0-0.1-0.1-0.3-0.1-0.4s0-0.1-0.1-0.2c-0.1-0.2-0.1-0.3-0.2-0.4v-0.1
		c-0.4-1.1-1.3-2-2.5-2.3l-3.8-1.2V15c0.4-0.4,0.9-0.7,1.2-1.2h0.2c1.5,0,2.7-1.2,2.7-2.7V9.3c0-0.7-0.6-1.3-1.3-1.3l0.4-1.2
		c0.2-0.7,0-1.3-0.4-1.9c-0.4-0.4-0.8-0.7-1.3-0.8c-0.1-0.6-0.4-1.2-0.9-1.7c-0.6-0.5-1.4-0.7-2.1-0.6l-5.3,0.9
		C14,2.7,13.4,3.2,13,3.7c-0.4,0.6-0.5,1.3-0.4,2L13.1,8h-0.2c-0.7,0-1.3,0.6-1.3,1.3v0.9c0,0.7,0.6,1.3,1.3,1.3h0.5
		c0.1,0.6,0.4,1.2,0.6,1.8H4c-0.3,0-0.4,0.2-0.4,0.4V24c0,0.4,0.1,0.6,0.3,0.9H3.5c-1,0-1.8,0.8-1.8,1.8c0,1,0.8,1.8,1.8,1.8v1.3
		c0,0.3,0.2,0.4,0.4,0.4s0.4-0.2,0.4-0.4v-1.3h23.1v1.3c0,0.3,0.2,0.4,0.4,0.4c0.3,0,0.4-0.2,0.4-0.4v-1.3c1,0,1.8-0.8,1.8-1.8
		C30.2,25.7,29.4,24.9,28.5,24.9z M24,24.9v-0.3c0-2,1.4-3.6,3.3-4c0.1,0.2,0.2,0.4,0.3,0.6v0.1c0.1,0.3,0.1,0.4,0.1,0.7v2.8H24z
		 M25.3,18.9c0.5,0.2,1.1,0.5,1.4,0.9c-2.1,0.6-3.6,2.6-3.6,4.8v0.3h-3.7c0.2-0.3,0.3-0.5,0.3-0.9v-1.3c0-0.3-0.2-0.4-0.4-0.4h-1.4
		v-2.8c0.4,0.3,0.7,0.4,0.7,0.4h0.4c0.3-0.1,2-0.9,2.6-2C21.4,17.7,25.3,18.9,25.3,18.9z M20.8,16.7c0,0.9-1.4,1.8-2.1,2.1
		c-0.2-0.1-0.5-0.3-0.9-0.5v-2.4C18,16,18.4,16,18.7,16c0.8,0,1.5-0.2,2.1-0.4V16.7z M23.5,12.9c0.2-0.4,0.4-0.9,0.4-1.3h0.5
		c0.2,0,0.3,0,0.4-0.1C24.7,12.2,24.2,12.7,23.5,12.9z M24.5,8.9c0.3,0,0.4,0.2,0.4,0.4v0.9c0,0.3-0.2,0.4-0.4,0.4H24V9.2l0.1-0.4
		C24.1,8.9,24.5,8.9,24.5,8.9z M13.7,4.3c0.3-0.4,0.7-0.6,1.2-0.7l5.3-0.9c0.5-0.1,1.1,0.1,1.4,0.4c0.4,0.4,0.6,0.9,0.6,1.4
		c0,0.3,0.2,0.4,0.4,0.4c0.4,0,0.8,0.2,1.1,0.5C24,5.8,24.1,6.1,24,6.5l-0.7,2.1c-0.2,0-0.4-0.2-0.4-0.4V6.8c0-0.4-0.2-0.6-0.4-0.7
		c-0.3-0.2-0.6-0.1-0.9,0.1c-1.4,1.1-3.3,1.5-5.1,1.2l-0.9-0.2c-0.6,0-1.2,0.5-1.2,1.2c0,0.2-0.1,0.3-0.3,0.4l-0.8-3.1
		C13.2,5.1,13.4,4.7,13.7,4.3z M13.3,10.7h-0.4c-0.3,0-0.4-0.2-0.4-0.4V9.3c0-0.3,0.2-0.4,0.4-0.4h0.4l0.1,0.4V10.7z M14.2,10.7V9.6
		c0.6-0.1,1.1-0.5,1.1-1.2c0-0.2,0.2-0.4,0.3-0.4l0.8,0.2c2,0.4,4-0.1,5.7-1.2v1.4c0,0.6,0.4,1.2,1.1,1.2v1.1c0,0.9-0.3,1.6-0.6,2.3
		H20c-0.3,0-0.4,0.2-0.4,0.4c0,0.3,0.2,0.4,0.4,0.4h1.8c-0.8,0.7-2,1.2-3.1,1.2c-0.3,0-0.6,0-0.9-0.1v-1.2c0-0.3-0.2-0.4-0.4-0.4
		h-2.2C14.6,12.5,14.2,11.6,14.2,10.7z M4.4,14.2h12.5v8H4.4V14.2z M4.4,24v-0.9h14.2V24c0,0.5-0.4,0.9-0.9,0.9H5.3
		C4.8,24.9,4.4,24.5,4.4,24z M28.5,27.6H3.5c-0.5,0-0.9-0.4-0.9-0.9c0-0.5,0.4-0.9,0.9-0.9h24.9c0.5,0,0.9,0.4,0.9,0.9
		C29.3,27.2,29,27.6,28.5,27.6z"/>
	<linearGradient id="SVGID_2_" gradientUnits="userSpaceOnUse" x1="1.8787" y1="18.5" x2="30.1645" y2="18.5">
		<stop  offset="0" style="stop-color:#60B80D"/>
		<stop  offset="1" style="stop-color:#1C7CC9"/>
	</linearGradient>
	<path class="st2" d="M11.2,19.2H8.8c-0.4,0-0.7-0.3-0.7-0.7l0,0c0-0.4,0.3-0.7,0.7-0.7h2.4c0.4,0,0.7,0.3,0.7,0.7l0,0
		C11.9,18.9,11.6,19.2,11.2,19.2z"/>
</g>
</svg>
