<?xml version="1.0" encoding="utf-8"?>
<!-- Generator: Adobe Illustrator 25.2.1, SVG Export Plug-In . SVG Version: 6.00 Build 0)  -->
<svg version="1.1" id="Layer_1" xmlns="http://www.w3.org/2000/svg" xmlns:xlink="http://www.w3.org/1999/xlink" x="0px" y="0px"
	 viewBox="0 0 32 32" style="enable-background:new 0 0 32 32;" xml:space="preserve">
<style type="text/css">
	.st0{opacity:0.36;fill:#D9EDDE;}
	.st1{fill:url(#SVGID_1_);}
</style>
<path class="st0" d="M15.5,9.8c-1.2-1.1-2.2-2.5-3.5-3.5C10.8,5.4,9.3,4.9,7.8,5c-1.5,0.1-3,0.9-3.9,2.1C2.5,9.1,2.7,11.7,3,14
	c0.3,2.2,0.5,4.5,0.8,6.7c0.1,0.9,0.2,1.8,0.5,2.6c0.6,1.7,2,3.1,3.7,3.8s3.5,1,5.3,0.9c2.6-0.1,5.2-1,7.4-2.3
	C22,25,23.2,24,24.4,23c1.4-1.2,2.7-2.4,3.8-3.9c1-1.3,1.8-2.9,2-4.6c0.2-1.2,0-3.2-1.5-3.5c-0.5-0.1-1.1,0-1.6,0.2
	c-0.8,0.2-1.6,0.6-2.4,0.8c-1.5,0.4-3.1,0.4-4.6,0.1c-1.5-0.3-3-1-4.2-2C15.8,10.1,15.7,9.9,15.5,9.8z"/>
<linearGradient id="SVGID_1_" gradientUnits="userSpaceOnUse" x1="-8.121133e-07" y1="18.0127" x2="22.167" y2="18.0127" gradientTransform="matrix(1 0 0 -1 0 34)">
	<stop  offset="0" style="stop-color:#60B80D"/>
	<stop  offset="1" style="stop-color:#1C7CC9"/>
</linearGradient>
<path class="st1" d="M31.9,21c-0.1-0.3-0.2-0.5-0.3-0.7c-0.3-0.5-0.8-1-1.5-1.2l-1.8-0.6c0.2,0,0.5-0.1,0.7-0.1h0.2
	c0.6-0.1,1.1-0.7,1.1-1.3v-3c0-2.4-1.9-4.3-4.3-4.3s-4.3,1.9-4.3,4.3V17c0,0.6,0.4,1.2,1.1,1.3H23c0.2,0.1,0.5,0.1,0.7,0.1L21.9,19
	c-0.3,0.1-0.5,0.2-0.7,0.4L19,18.8V17c1.3-0.9,2.1-2.4,2.1-4.1v-0.6l0.2-0.2L22,9.7c0.1-0.7,0-1.3-0.4-1.9c-0.3-0.4-0.8-0.7-1.3-0.8
	c-0.1-0.6-0.4-1.2-0.9-1.6C18.8,5,18,4.8,17.3,4.9l-5,0.8c-0.7,0.1-1.3,0.5-1.7,1.1s-0.6,1.3-0.4,2l0.7,3.2c0,0.1,0.1,0.2,0.2,0.3
	V13c0,1.7,0.8,3.1,2.1,4.1v1.8l-2.1,0.7c-0.2-0.2-0.5-0.3-0.7-0.4L8,18.4v-0.8C8.9,17,9.4,16,9.4,14.8v-0.5l0.5-2.1
	c0.1-0.5,0-1-0.3-1.4C9.4,10.3,9,10.1,8.5,10L5.2,9.4c-0.5,0-1.1,0.1-1.5,0.5c-0.3,0.3-0.5,0.6-0.6,1c-0.3,0.1-0.6,0.3-0.8,0.5
	C2,11.8,1.9,12.3,2,12.8l0.5,1.5v0.5c0,1.1,0.6,2.2,1.4,2.8v0.8l-2.1,0.7c-0.9,0.3-1.5,1-1.7,1.8C0,21.2,0,21.5,0,21.7v1.9
	c0,0.3,0.2,0.5,0.5,0.5H7v2.5c0,0.3,0.2,0.5,0.5,0.5h17c0.3,0,0.5-0.2,0.5-0.5v-2.5h6.5c0.3,0,0.5-0.2,0.5-0.5v-1.9
	C32,21.5,32,21.2,31.9,21z M25.2,13.7c0.2,0.2,0.5,0.3,0.8,0.3h1.6v0.8c0,0.4-0.3,0.8-0.8,0.8h-0.4c-0.3,0-0.5,0.2-0.5,0.5
	c0,0.3,0.2,0.5,0.5,0.5h0.4c0.2,0,0.4,0,0.5-0.1c-0.3,0.5-0.8,0.8-1.4,0.8c-0.9,0-1.6-0.7-1.6-1.6V14C24.7,14,25,13.8,25.2,13.7z
	 M25,18.5V18c0.3,0.1,0.7,0.2,1,0.2c0.4,0,0.7-0.1,1-0.2v0.5c0,0.3-0.6,0.7-1,1C25.5,19.3,25,18.8,25,18.5z M29,17.4h-0.2
	c-0.3,0.1-0.5,0.1-0.8,0.1v-0.4c0.4-0.4,0.6-1,0.6-1.6v-1.4c0.4,0.2,0.7,0.6,0.7,1.1V17C29.3,17.2,29.2,17.3,29,17.4z M23,17.4
	c-0.2,0-0.3-0.2-0.3-0.3V14c0-1.8,1.5-3.3,3.3-3.3c1.6,0,3,1.2,3.2,2.7c-0.3-0.2-0.7-0.3-1.1-0.3H26c-0.2,0-0.3-0.2-0.3-0.3
	c0-0.3-0.2-0.5-0.5-0.5s-0.5,0.2-0.5,0.5c0,0.2-0.2,0.3-0.3,0.3H24c-0.3,0-0.5,0.2-0.5,0.5v2.1c0,0.6,0.2,1.2,0.6,1.6v0.4
	c-0.3,0-0.5-0.1-0.8-0.1C23.3,17.6,23,17.4,23,17.4z M24.3,19.4c0.5,0.6,1.3,1.1,1.5,1.2h0.4c0.2-0.1,1.1-0.5,1.5-1.2l2.1,0.7
	c0.2,0.1,0.3,0.1,0.4,0.2c-1,0.4-1.7,1.3-1.9,2.3v0.5H25v-0.2c0-0.1,0-0.2-0.1-0.3c0-0.1-0.1-0.2-0.1-0.2c0-0.1-0.1-0.2-0.1-0.3
	c0-0.1-0.1-0.2-0.1-0.2c0-0.1-0.1-0.2-0.2-0.3c0-0.1-0.1-0.1-0.1-0.2c-0.1-0.1-0.1-0.2-0.2-0.3l-0.2-0.2l-0.3-0.3l-0.1-0.1
	c-0.2-0.1-0.3-0.2-0.5-0.3c0,0-0.1,0-0.1-0.1C22.8,20,22.7,20,22.6,20C22.6,20,24.3,19.4,24.3,19.4z M11.3,7.4
	c0.3-0.4,0.6-0.6,1.1-0.7l5-0.8h0.3c0.4,0,0.7,0.1,1,0.4c0.4,0.3,0.6,0.7,0.6,1.3c0,0.3,0.2,0.5,0.5,0.5c0.4,0,0.7,0.2,1,0.5
	c0.2,0.3,0.3,0.7,0.3,1l-0.6,2c-0.1,0-0.2-0.1-0.2-0.2V9.8c0-0.3-0.2-0.6-0.5-0.8c-0.3-0.1-0.6-0.1-0.9,0.1c-1.4,1-3.1,1.4-4.8,1.1
	l-1-0.2c-0.7,0-1.2,0.6-1.2,1.2c0,0.1-0.1,0.2-0.2,0.2L11,8.7C11,8.2,11,7.8,11.3,7.4z M11.9,13v-0.6c0.5-0.1,0.9-0.6,0.9-1.2
	c0-0.1,0.1-0.2,0.1-0.2l0.8,0.2c1.9,0.4,3.8,0,5.4-1.1v1.2c0,0.6,0.4,1,0.9,1.2V13c0,0.8-0.7,1.4-1.5,1.4h-2c-0.3,0-0.5,0.2-0.5,0.5
	s0.2,0.5,0.5,0.5h2c0.3,0,0.5-0.1,0.8-0.1c-0.7,1.1-2,1.8-3.4,1.8C13.8,17.1,11.9,15.2,11.9,13z M16,18.1c0.7,0,1.4-0.1,2-0.4v1.1
	c0,0.7-1.2,1.5-2,1.9c-0.8-0.4-2-1.2-2-1.9v-1.1C14.6,17.9,15.3,18.1,16,18.1z M15.8,21.7h0.4c0.2-0.1,1.8-0.8,2.5-1.9l2.4,0.8
	l1,0.3c0.4,0.1,0.8,0.4,1.1,0.7C21.3,22.2,20,23.9,20,26v0.2h-7.8V26c0-2-1.3-3.8-3.2-4.4c0.2-0.2,0.4-0.4,0.7-0.5
	C9.8,21,10,21,10.1,20.9l1-0.3l2.4-0.8C14,20.9,15.6,21.6,15.8,21.7z M3.1,12c0.1-0.1,0.3-0.2,0.5-0.2c0.3,0,0.5-0.3,0.5-0.5
	s0.1-0.5,0.3-0.6c0.2-0.1,0.3-0.2,0.5-0.2H5L8.3,11c0.2,0,0.4,0.2,0.6,0.4s0.2,0.4,0.2,0.6l-0.3,1.3l-0.4-0.4
	c-0.2-0.2-0.5-0.3-0.9-0.3H4.6c-0.3,0-0.6,0.1-0.9,0.3l-0.5,0.4L3,12.5C2.9,12.4,3,12.2,3.1,12z M3.5,14.8v-0.4l0.9-0.7
	c0.1-0.1,0.1-0.1,0.2-0.1h2.8c0.1,0,0.2,0,0.2,0.1l0.9,0.7v0.4c0,0.4-0.3,0.8-0.8,0.8H6.4c-0.3,0-0.5,0.2-0.5,0.5
	c0,0.3,0.2,0.5,0.5,0.5h1.4C7.3,17,6.7,17.3,6,17.3C4.6,17.3,3.5,16.2,3.5,14.8z M6,18.3c0.4,0,0.7-0.1,1-0.2v0.5c0,0.3-0.6,0.7-1,1
	c-0.5-0.3-1-0.7-1-1v-0.5C5.3,18.2,5.6,18.3,6,18.3z M2.2,20.1l2.1-0.7c0.5,0.6,1.3,1.1,1.5,1.2h0.4c0.2-0.1,1.1-0.5,1.5-1.2L9.5,20
	c-0.1,0-0.2,0.1-0.3,0.1s-0.1,0-0.2,0.1c-0.2,0.1-0.3,0.2-0.5,0.3l-0.1,0.1l-0.3,0.3c0,0,0,0.1-0.1,0.1c-0.1,0.1-0.1,0.2-0.2,0.3
	c-0.1,0.1-0.1,0.1-0.1,0.2c-0.1,0.1-0.1,0.2-0.2,0.3c0,0.1-0.1,0.2-0.1,0.2c0,0.1-0.1,0.2-0.1,0.3c0,0.1-0.1,0.2-0.1,0.3
	c0,0.1-0.1,0.2-0.1,0.3c0,0.1,0,0.2-0.1,0.3H3.6c0-1.3-0.8-2.3-1.9-2.8C1.9,20.2,2,20.1,2.2,20.1z M1,23.1v-1.4c0-0.2,0-0.4,0.1-0.6
	c0.9,0.3,1.5,1.1,1.5,2H1z M8,26.1v-2.5c0-0.2,0-0.4,0.1-0.6v-0.1c0-0.2,0.1-0.4,0.2-0.5c1.6,0.4,2.8,1.8,2.8,3.5v0.2H8z M24,26.1
	h-3.1v-0.2c0-1.7,1.2-3.1,2.8-3.5c0.1,0.2,0.1,0.4,0.2,0.5V23c0,0.2,0.1,0.4,0.1,0.6V26.1z M29.4,23.1c0-0.7,0.4-1.3,0.9-1.7
	l0.6-0.3c0.1,0.2,0.1,0.4,0.1,0.6v1.4H29.4z"/>
</svg>
