<?xml version="1.0" encoding="utf-8"?>
<!-- Generator: Adobe Illustrator 25.2.1, SVG Export Plug-In . SVG Version: 6.00 Build 0)  -->
<svg version="1.1" id="Layer_1" xmlns="http://www.w3.org/2000/svg" xmlns:xlink="http://www.w3.org/1999/xlink" x="0px" y="0px"
	 viewBox="0 0 32 32" style="enable-background:new 0 0 32 32;" xml:space="preserve">
<style type="text/css">
	.st0{opacity:0.36;fill:#D9EDDE;}
	.st1{fill:url(#SVGID_1_);}
	.st2{fill:url(#SVGID_2_);}
</style>
<path class="st0" d="M13.9,10.5c-1.5-0.7-2.8-1.8-4.3-2.3C8.1,7.6,6.5,7.6,5,8.1s-2.6,1.7-3.1,3.1c-0.8,2.2,0.2,4.7,1.2,6.8
	c0.9,2.1,1.8,4.1,2.7,6.2c0.4,0.8,0.7,1.6,1.2,2.3c1.1,1.5,2.8,2.3,4.6,2.6c1.8,0.3,3.6,0,5.3-0.7c2.5-0.9,4.7-2.4,6.4-4.4
	c1-1.2,1.9-2.4,2.7-3.7c1-1.5,1.9-3.1,2.5-4.8c0.6-1.6,0.9-3.3,0.6-5c-0.2-1.2-0.9-3-2.4-2.9c-0.5,0.1-1,0.4-1.5,0.7
	c-0.7,0.5-1.3,1-2.1,1.5c-1.3,0.8-2.9,1.3-4.4,1.4c-1.5,0.1-3.1-0.1-4.6-0.7C14.2,10.6,14,10.6,13.9,10.5z"/>
<linearGradient id="SVGID_1_" gradientUnits="userSpaceOnUse" x1="1.5468" y1="17.975" x2="19.8187" y2="17.975" gradientTransform="matrix(1 0 0 -1 0 34)">
	<stop  offset="0" style="stop-color:#60B80D"/>
	<stop  offset="1" style="stop-color:#1C7CC9"/>
</linearGradient>
<path class="st1" d="M31.7,11.9c-0.2-0.2-0.5-0.2-0.7,0l-5.9,5.9l-0.4-0.4l-2.5-2.6l-2.9-2.9L25.2,6c0.2-0.2,0.2-0.5,0-0.7
	s-0.5-0.2-0.7,0l-6.2,6.2c-0.2,0.1-0.2,0.2-0.2,0.4s0.1,0.3,0.1,0.4l0.4,0.4l-1.1,1.1l-0.6-0.6c-0.1-0.1-0.3-0.2-0.4-0.1l-1.7,0.2
	l-0.5-0.5l0.7-0.7c0.1-0.1,0.1-0.2,0.1-0.4S15,11.4,15,11.3l-2.9-2.9L7.6,3.8c-0.2-0.2-0.5-0.2-0.7,0C6.7,4,6.7,4.3,6.9,4.5l1,1.1
	l2.9,2.9L5,14.5l-4-4c-0.2-0.2-0.5-0.2-0.7,0s-0.2,0.5,0,0.7l1.1,1.1l6.2,6.2c0.1,0.1,0.2,0.1,0.4,0.1c0.2,0,0.3,0,0.4-0.1l0.3-0.4
	l0.8,0.8c-0.3,0.5-0.2,1.2,0.3,1.8l0.4,0.4c-0.6,0.6-0.6,1.5,0,2.2c0.3,0.3,0.6,0.4,1,0.4c0,0.4,0.2,0.7,0.4,1
	c0.3,0.3,0.6,0.4,1,0.4c0,0.4,0.2,0.7,0.4,1c0.3,0.3,0.6,0.4,1,0.4c0,0.4,0.2,0.7,0.4,1c0.3,0.3,0.7,0.4,1.1,0.4s0.8-0.1,1.1-0.4
	l0.4,0.4c0.3,0.3,0.7,0.4,1.1,0.4s0.8-0.1,1.1-0.4c0.3-0.3,0.4-0.6,0.4-1c0.4,0,0.7-0.2,1-0.4c0.3-0.3,0.4-0.6,0.4-1
	c0.4,0,0.7-0.2,1-0.4c0.3-0.3,0.4-0.6,0.4-1c0.4,0,0.7-0.2,1-0.4c0.6-0.6,0.6-1.5,0-2.2l-0.4-0.4c0.5-0.5,0.6-1.2,0.3-1.8l0.8-0.8
	l0.4,0.4c0.1,0.1,0.2,0.1,0.4,0.1s0.3,0,0.4-0.1l6.2-6.2C31.9,12.4,31.9,12.1,31.7,11.9z M5.8,15.1l5.9-5.9l2.2,2.2l-2.9,2.9
	l-2.6,2.6l-0.4,0.4C7.9,17.2,5.8,15.1,5.8,15.1z M10.5,19.8c-0.2-0.2-0.2-0.5,0-0.7s0.2-0.5,0-0.7l-1.1-1.1L9.6,17l3.8-3.8l0.7,0.7
	c0.1,0.1,0.3,0.2,0.4,0.1l1.7-0.2l3.4,3.4c-0.5,0.3-1.1,0.3-1.7-0.1l-2-2c-0.2-0.2-0.5-0.2-0.7,0s-0.2,0.5,0,0.7l-4.4,4.3L10.5,19.8
	z M18.6,27.1c-0.2,0.2-0.5,0.2-0.7,0l-0.4-0.4l0.7-0.7l0.4,0.4c0.1,0.1,0.1,0.2,0.1,0.4S18.7,27,18.6,27.1z M20,25.7
	c-0.1,0.1-0.2,0.1-0.4,0.1c-0.1,0-0.3-0.1-0.4-0.1l-0.3-0.4l0.7-0.7L20,25c0.1,0.1,0.1,0.2,0.1,0.3S20.1,25.6,20,25.7z M21.5,24.3
	c-0.2,0.2-0.5,0.2-0.7,0l-0.4-0.4l0.7-0.7l0.4,0.4C21.7,23.7,21.7,24.1,21.5,24.3z M22.9,22.1c0.1,0.1,0.1,0.2,0.1,0.4
	s-0.1,0.3-0.1,0.4c-0.2,0.2-0.5,0.2-0.7,0l-0.4-0.4l0.7-0.7C22.5,21.8,22.9,22.1,22.9,22.1z M22.6,18.8c-0.2,0.2-0.2,0.5,0,0.7
	s0.2,0.5,0,0.7l-3.3,3.3L17.9,25l-1.4,1.4L16,26.8c-0.2,0.2-0.5,0.2-0.7,0s-0.2-0.5,0-0.7l1.4-1.4c0.2-0.2,0.2-0.5,0-0.7
	s-0.5-0.2-0.7,0l-1.4,1.3c-0.2,0.2-0.5,0.2-0.7,0s-0.2-0.5,0-0.7l1.4-1.4c0.2-0.2,0.2-0.5,0-0.7s-0.5-0.2-0.7,0l-1.4,1.4
	c-0.1,0.1-0.2,0.1-0.4,0.1c-0.1,0-0.3-0.1-0.4-0.1c-0.2-0.2-0.2-0.5,0-0.7l1.4-1.4c0.2-0.2,0.2-0.5,0-0.7s-0.5-0.2-0.7,0l-1.4,1.4
	c-0.2,0.2-0.5,0.2-0.7,0s-0.2-0.5,0-0.7l5.2-5.2l1.3,1.3c0.4,0.4,1,0.7,1.7,0.7s1.2-0.2,1.7-0.7l0.2-0.2c0.2-0.2,0.2-0.5,0-0.7
	l-2.6-2.6l1.1-1.1l2.2,2.2l2.2,2.2C23.7,17.5,22.6,18.8,22.6,18.8z"/>
<linearGradient id="SVGID_2_" gradientUnits="userSpaceOnUse" x1="2" y1="18.9" x2="19.7" y2="18.9" gradientTransform="matrix(1 0 0 -1 0 34)">
	<stop  offset="0" style="stop-color:#60B80D"/>
	<stop  offset="1" style="stop-color:#1C7CC9"/>
</linearGradient>
<circle class="st2" cx="8.2" cy="15.1" r="0.5"/>
</svg>
