<?xml version="1.0" encoding="utf-8"?>
<!-- Generator: Adobe Illustrator 25.2.1, SVG Export Plug-In . SVG Version: 6.00 Build 0)  -->
<svg version="1.1" id="Layer_1" xmlns="http://www.w3.org/2000/svg" xmlns:xlink="http://www.w3.org/1999/xlink" x="0px" y="0px"
	 viewBox="0 0 32 32" style="enable-background:new 0 0 32 32;" xml:space="preserve">
<style type="text/css">
	.st0{opacity:0.36;fill:#D9EDDE;}
	.st1{fill:url(#SVGID_1_);}
	.st2{fill:url(#SVGID_2_);}
	.st3{fill:url(#SVGID_3_);}
	.st4{fill:url(#SVGID_4_);}
	.st5{fill:url(#SVGID_5_);}
	.st6{fill:url(#SVGID_6_);}
</style>
<path class="st0" d="M14.4,10.2c-1.4-0.8-2.6-2-4.1-2.7c-1.4-0.7-3-0.9-4.5-0.4S3.1,8.5,2.4,9.9c-1,2.2-0.2,4.7,0.5,6.9
	c0.7,2.1,1.4,4.3,2.1,6.4c0.3,0.8,0.6,1.7,1,2.4c0.9,1.5,2.6,2.6,4.3,3s3.6,0.3,5.4-0.2c2.5-0.7,4.9-2,6.8-3.7c1.1-1,2.1-2.2,3-3.5
	c1.1-1.4,2.2-2.9,3-4.6c0.7-1.5,1.2-3.2,1.1-4.9c-0.1-1.2-0.6-3.1-2.1-3.1c-0.5,0-1.1,0.3-1.5,0.5c-0.7,0.4-1.4,0.9-2.2,1.3
	c-1.4,0.7-3,1-4.5,1c-1.5,0-3.1-0.4-4.5-1.1C14.7,10.4,14.5,10.3,14.4,10.2z"/>
<g>
	
		<linearGradient id="SVGID_1_" gradientUnits="userSpaceOnUse" x1="0.6667" y1="20.8121" x2="25.2128" y2="20.8121" gradientTransform="matrix(1 0 0 -1 0 34)">
		<stop  offset="0" style="stop-color:#60B80D"/>
		<stop  offset="1" style="stop-color:#1C7CC9"/>
	</linearGradient>
	<path class="st1" d="M9.1,15.3h1.6v0.5c0,0.3,0.2,0.5,0.5,0.5c0.3,0,0.5-0.2,0.5-0.5v-0.5h0.5c0.3,0,0.5-0.2,0.5-0.5
		c0-0.3-0.2-0.5-0.5-0.5h-0.5v-1.6c0-0.3-0.2-0.5-0.5-0.5c-0.3,0-0.5,0.2-0.5,0.5v1.6h-1l0.6-3.6c0.1-0.3-0.1-0.5-0.4-0.6
		c-0.3-0.1-0.5,0.1-0.6,0.4l-0.9,4.3c0,0.1,0,0.3,0.1,0.4C8.6,15.2,9,15.3,9.1,15.3z"/>
	
		<linearGradient id="SVGID_2_" gradientUnits="userSpaceOnUse" x1="0.6667" y1="20.8121" x2="25.2128" y2="20.8121" gradientTransform="matrix(1 0 0 -1 0 34)">
		<stop  offset="0" style="stop-color:#60B80D"/>
		<stop  offset="1" style="stop-color:#1C7CC9"/>
	</linearGradient>
	<path class="st2" d="M19.7,15.3h1.6v0.5c0,0.3,0.2,0.5,0.5,0.5s0.5-0.2,0.5-0.5v-0.5h0.5c0.3,0,0.5-0.2,0.5-0.5
		c0-0.3-0.2-0.5-0.5-0.5h-0.5v-1.6c0-0.3-0.2-0.5-0.5-0.5s-0.5,0.2-0.5,0.5v1.6h-1l0.6-3.6c0.1-0.3-0.1-0.5-0.4-0.6
		c-0.3-0.1-0.5,0.1-0.6,0.4l-0.9,4.3c0,0.1,0,0.3,0.1,0.4C19.3,15.2,19.6,15.3,19.7,15.3z"/>
	
		<linearGradient id="SVGID_3_" gradientUnits="userSpaceOnUse" x1="2.8" y1="10.4684" x2="27.3461" y2="10.4684" gradientTransform="matrix(1 0 0 -1 0 34)">
		<stop  offset="0" style="stop-color:#60B80D"/>
		<stop  offset="1" style="stop-color:#1C7CC9"/>
	</linearGradient>
	<path class="st3" d="M6.9,23H6.3c-0.1-0.3-0.2-0.6-0.4-1l0.5-0.4c0.2-0.2,0.2-0.5,0-0.7c-0.2-0.2-0.5-0.2-0.7,0l-0.4,0.4
		c-0.3-0.2-0.6-0.3-1-0.4v-0.5c0-0.3-0.2-0.5-0.5-0.5S3.2,20,3.2,20.3V21c-0.3,0.1-0.6,0.2-1,0.4L1.8,21c-0.2-0.2-0.5-0.2-0.7,0
		c-0.2,0.2-0.2,0.4,0,0.6L1.5,22c-0.2,0.3-0.3,0.6-0.4,1H0.5C0.2,23,0,23.2,0,23.5c0,0.3,0.2,0.5,0.5,0.5h0.6c0.1,0.3,0.2,0.6,0.4,1
		l-0.5,0.4c-0.2,0.2-0.2,0.5,0,0.7c0.1,0.1,0.2,0.1,0.4,0.1s0.3,0,0.4-0.1l0.4-0.4c0.3,0.2,0.6,0.3,1,0.4v0.5c0,0.3,0.2,0.5,0.5,0.5
		s0.4-0.2,0.4-0.5v-0.6c0.3-0.1,0.6-0.2,1-0.4l0.4,0.4c0.1,0.1,0.2,0.1,0.4,0.1s0.3,0,0.4-0.1c0.2-0.2,0.2-0.5,0-0.7l-0.4-0.4
		c0.2-0.3,0.3-0.6,0.4-1h0.6c0.1,0.1,0.3-0.1,0.3-0.4C7.5,23.2,7.3,23,6.9,23z M3.7,25.1c-0.9,0-1.6-0.7-1.6-1.6
		c0-0.4,0.2-0.9,0.4-1.2c0.3-0.3,0.7-0.4,1.2-0.4c0.9,0,1.6,0.7,1.6,1.6S4.6,25.1,3.7,25.1z"/>
	
		<linearGradient id="SVGID_4_" gradientUnits="userSpaceOnUse" x1="2.8" y1="10.4684" x2="27.3461" y2="10.4684" gradientTransform="matrix(1 0 0 -1 0 34)">
		<stop  offset="0" style="stop-color:#60B80D"/>
		<stop  offset="1" style="stop-color:#1C7CC9"/>
	</linearGradient>
	<circle class="st4" cx="3.7" cy="23.5" r="0.5"/>
	
		<linearGradient id="SVGID_5_" gradientUnits="userSpaceOnUse" x1="0.6667" y1="18.1316" x2="25.2128" y2="18.1316" gradientTransform="matrix(1 0 0 -1 0 34)">
		<stop  offset="0" style="stop-color:#60B80D"/>
		<stop  offset="1" style="stop-color:#1C7CC9"/>
	</linearGradient>
	<path class="st5" d="M31.5,11.6h-0.9l0.6-0.6c0.2-0.2,0.2-0.5,0-0.7l-1.5-1.5c-0.2-0.2-0.5-0.2-0.7,0l-0.6,0.6v-1
		c0-0.3-0.2-0.5-0.5-0.5h-1.1V7.3c0-0.9-0.7-1.6-1.6-1.6H7c-1,0-1.7,0.7-1.7,1.6v6c-0.3,0.1-0.6,0.2-1,0.4l-0.4-0.4
		c-0.2-0.2-0.5-0.2-0.7,0s-0.2,0.4,0,0.6l0.4,0.4c-0.2,0.3-0.3,0.6-0.4,1H2.7c-0.3,0-0.5,0.2-0.5,0.5c0,0.3,0.2,0.5,0.5,0.5h0.6
		c0.1,0.3,0.2,0.6,0.4,1l-0.5,0.4C3,18,3,18.3,3.2,18.5c0.1,0.1,0.2,0.1,0.4,0.1s0.3,0,0.4-0.1l0.4-0.4c0.3,0.2,0.6,0.3,1,0.4v1.6
		c0,0.9,0.7,1.6,1.6,1.6h5.8v3.2H9.1c-0.3,0-0.5,0.2-0.5,0.5c0,0.3,0.2,0.5,0.5,0.5h13.9c0.3,0,0.5-0.2,0.5-0.5
		c0-0.3-0.2-0.5-0.5-0.5h-3.7v-3.2h5.9c0.9,0,1.6-0.7,1.6-1.6v-1.6h1.1c0.3,0,0.5-0.2,0.5-0.5v-0.9l0.6,0.6c0.2,0.2,0.5,0.2,0.7,0
		l1.5-1.5c0.2-0.2,0.2-0.5,0-0.7l-0.5-0.7h0.9c0.3,0,0.5-0.2,0.5-0.5v-2.1C32,11.8,31.8,11.6,31.5,11.6z M26.7,12.1
		c0.6,0,1.1,0.4,1.1,1.1s-0.4,1.1-1.1,1.1V12.1z M6.9,6.8h18.1c0.3,0,0.5,0.2,0.5,0.5v10.1H6.4V7.3C6.4,7,6.6,6.8,6.9,6.8z
		 M5.3,17.4c-0.6-0.2-1.1-0.9-1.1-1.5c0-0.4,0.2-0.9,0.4-1.2c0.2-0.2,0.4-0.3,0.6-0.3V17.4z M18.1,24.9h-4.3v-3.2h4.3V24.9z
		 M25.1,20.7H6.9c-0.3,0-0.5-0.2-0.5-0.5v-1.6h19.2v1.6C25.6,20.5,25.4,20.7,25.1,20.7z M30.9,13.7h-0.7c-0.2,0-0.4,0.1-0.5,0.4
		c-0.1,0.2-0.1,0.4-0.2,0.6c-0.1,0.2-0.1,0.4,0.1,0.6l0.5,0.5l-0.7,0.7l-0.5-0.6c-0.2-0.2-0.4-0.2-0.6-0.1c-0.2,0.1-0.4,0.2-0.6,0.2
		c-0.2,0.1-0.3,0.3-0.3,0.5v0.7h-0.5v-2.1c1.2,0,2.1-1,2.1-2.1s-1-2.1-2.1-2.1V8.9h0.5v0.7c0,0.2,0.1,0.4,0.3,0.5
		c0.2,0.1,0.4,0.1,0.6,0.2c0.2,0.1,0.4,0.1,0.6-0.1l0.5-0.5l0.7,0.7l-0.5,0.5c-0.2,0.2-0.2,0.4-0.1,0.6c0.1,0.2,0.2,0.4,0.2,0.6
		c0.1,0.2,0.3,0.4,0.5,0.4h0.7C30.9,12.8,30.9,13.7,30.9,13.7z"/>
	
		<linearGradient id="SVGID_6_" gradientUnits="userSpaceOnUse" x1="0.6667" y1="20.7982" x2="25.2128" y2="20.7982" gradientTransform="matrix(1 0 0 -1 0 34)">
		<stop  offset="0" style="stop-color:#60B80D"/>
		<stop  offset="1" style="stop-color:#1C7CC9"/>
	</linearGradient>
	<path class="st6" d="M15.5,16.4h1.1c0.9,0,1.6-0.7,1.6-1.6v-3.2c0-0.9-0.7-1.6-1.6-1.6h-1.1c-0.9,0-1.6,0.7-1.6,1.6v3.2
		C13.9,15.7,14.6,16.4,15.5,16.4z M14.9,11.6c0-0.3,0.2-0.5,0.5-0.5h1.1c0.3,0,0.5,0.2,0.5,0.5v3.2c0,0.3-0.2,0.5-0.5,0.5h-1.1
		c-0.3,0-0.5-0.2-0.5-0.5V11.6z"/>
</g>
</svg>
