<?xml version="1.0" encoding="utf-8"?>
<!-- Generator: Adobe Illustrator 25.2.1, SVG Export Plug-In . SVG Version: 6.00 Build 0)  -->
<svg version="1.1" id="Layer_1" xmlns="http://www.w3.org/2000/svg" xmlns:xlink="http://www.w3.org/1999/xlink" x="0px" y="0px"
	 viewBox="0 0 32 32" style="enable-background:new 0 0 32 32;" xml:space="preserve">
<style type="text/css">
	.st0{opacity:0.36;fill:#D9EDDE;}
	.st1{fill:url(#SVGID_1_);}
	.st2{fill:url(#SVGID_2_);}
</style>
<path class="st0" d="M10.8,14.9c-1.5,0.7-3.1,1.1-4.5,2c-1.3,0.8-2.3,2-2.8,3.5s-0.3,3.1,0.5,4.4c1.3,2,3.8,2.7,6.1,3.3
	c2.2,0.6,4.4,1.1,6.6,1.7c0.9,0.2,1.7,0.4,2.6,0.5c1.8,0.1,3.6-0.8,4.9-2c1.3-1.2,2.2-2.9,2.8-4.6c0.8-2.5,1-5.2,0.6-7.7
	c-0.3-1.5-0.7-3-1.3-4.4c-0.6-1.7-1.3-3.4-2.2-5c-0.9-1.4-2-2.7-3.5-3.6c-1-0.6-2.9-1.2-3.8,0.1c-0.3,0.5-0.4,1-0.4,1.6
	c-0.1,0.8,0,1.7-0.1,2.5c-0.2,1.5-0.8,3-1.6,4.3c-0.9,1.3-2,2.4-3.4,3.2C11.2,14.7,11,14.8,10.8,14.9z"/>
<linearGradient id="SVGID_1_" gradientUnits="userSpaceOnUse" x1="4.5637" y1="11.4209" x2="27.2317" y2="11.4209" gradientTransform="matrix(1 0 0 -1 0 34)">
	<stop  offset="0" style="stop-color:#60B80D"/>
	<stop  offset="1" style="stop-color:#1C7CC9"/>
</linearGradient>
<circle class="st1" cx="10.1" cy="22.6" r="0.7"/>
<linearGradient id="SVGID_2_" gradientUnits="userSpaceOnUse" x1="4.5637" y1="18" x2="27.2317" y2="18" gradientTransform="matrix(1 0 0 -1 0 34)">
	<stop  offset="0" style="stop-color:#60B80D"/>
	<stop  offset="1" style="stop-color:#1C7CC9"/>
</linearGradient>
<path class="st2" d="M28.2,18.2c0-0.6-0.3-1.1-0.6-1.4c0.4-0.4,0.6-0.9,0.6-1.4c0-1.1-0.9-2-2-2h-3.6c-0.5,0-0.9-0.4-0.9-0.9V9.6
	c0-2.1-1.6-3.7-3.7-3.7h-0.5c-0.3,0-0.5,0.2-0.5,0.5v3.4c0,0.5-0.2,1-0.5,1.4l-1.2,1.6c-0.2,0.2-0.5,0.4-0.7,0.4h-0.9v-0.9
	c0-0.3-0.2-0.5-0.5-0.5H4.3c-0.3,0-0.5,0.2-0.5,0.5s0.2,0.5,0.5,0.5h2.5V25H4.3c-0.3,0-0.5,0.2-0.5,0.5s0.2,0.5,0.5,0.5H13
	c0.3,0,0.5-0.2,0.5-0.5v-0.9H15c0.3,0,0.6,0.2,0.8,0.4c0.3,0.6,1,1,1.7,1h7.3c1.1,0,2-0.9,2-2c0-0.3-0.1-0.7-0.3-0.9
	c0.9-0.1,1.7-0.9,1.7-2c0-0.6-0.3-1.1-0.6-1.4C27.9,19.3,28.2,18.8,28.2,18.2z M12.6,25H7.8V12.8h4.8V25z M23.3,20.2h3
	c0.5,0,0.9,0.4,0.9,0.9s-0.4,0.9-0.9,0.9h-2.9c-0.3,0-0.5,0.2-0.5,0.5s0.2,0.5,0.5,0.5h1.4c0.5,0,0.9,0.4,0.9,0.9s-0.4,0.9-0.9,0.9
	h-7.3c-0.3,0-0.7-0.2-0.8-0.5c-0.3-0.6-0.9-0.9-1.6-0.9h-1.3v-9.3h0.9c0.6,0,1.2-0.3,1.5-0.8l1.1-1.5c0.4-0.6,0.7-1.3,0.7-2.1V7.1
	c1.4,0,2.7,1.2,2.7,2.7v2.6c0,1.1,0.9,2,2,2h3.6c0.5,0,0.9,0.4,0.9,0.9s-0.4,0.9-0.9,0.9h-2.9c-0.3,0-0.5,0.2-0.5,0.5
	s0.2,0.5,0.5,0.5h2.9c0.5,0,0.9,0.4,0.9,0.9S26.8,19,26.3,19h-2.9c-0.3,0-0.5,0.2-0.5,0.5C22.9,19.8,23,20.2,23.3,20.2z"/>
</svg>
