<?xml version="1.0" encoding="utf-8"?>
<!-- Generator: Adobe Illustrator 25.2.1, SVG Export Plug-In . SVG Version: 6.00 Build 0)  -->
<svg version="1.1" id="Layer_1" xmlns="http://www.w3.org/2000/svg" xmlns:xlink="http://www.w3.org/1999/xlink" x="0px" y="0px"
	 viewBox="0 0 32 32" style="enable-background:new 0 0 32 32;" xml:space="preserve">
<style type="text/css">
	.st0{opacity:0.36;fill:#D9EDDE;}
	.st1{fill:url(#SVGID_1_);}
	.st2{fill:url(#SVGID_2_);}
	.st3{fill:url(#SVGID_3_);}
</style>
<path class="st0" d="M10.8,16.1c-1.3,1-2.8,1.7-4,2.9c-1.1,1.1-1.9,2.5-2,4s0.4,3.1,1.4,4.2c1.7,1.7,4.3,1.9,6.7,2
	c2.3,0.1,4.5,0.2,6.8,0.3c0.9,0,1.8,0.1,2.6-0.1c1.8-0.3,3.4-1.5,4.4-3s1.6-3.3,1.8-5.1c0.3-2.6-0.1-5.3-1.1-7.7
	c-0.6-1.4-1.3-2.8-2.2-4.1C24.3,8,23.3,6.5,22,5.2C20.9,4,19.5,3,17.9,2.4c-1.1-0.4-3.1-0.6-3.6,0.9c-0.2,0.5-0.1,1.1-0.1,1.6
	c0.1,0.8,0.3,1.6,0.4,2.5c0.1,1.6-0.1,3.1-0.7,4.6c-0.6,1.4-1.5,2.8-2.6,3.8C11.1,15.9,10.9,16,10.8,16.1z"/>
<linearGradient id="SVGID_1_" gradientUnits="userSpaceOnUse" x1="4.3958" y1="17.532" x2="25.1708" y2="17.532" gradientTransform="matrix(1 0 0 -1 0 34)">
	<stop  offset="0" style="stop-color:#60B80D"/>
	<stop  offset="1" style="stop-color:#1C7CC9"/>
</linearGradient>
<path class="st1" d="M21.1,23.7c0-0.1,0-0.1-0.1-0.2C21,23.3,21,23.2,20.9,23V23c-0.4-1-1.3-1.9-2.4-2.3l-3.7-1.2v-1.7
	c1.1-0.8,1.9-2,2.2-3.4h0.5c0.7,0,1.3-0.6,1.3-1.3v-0.9c0-0.7-0.6-1.3-1.3-1.3l0.4-1.2c0.2-0.7,0-1.3-0.4-1.8
	C17,7.4,16.6,7.1,16.1,7c-0.1-0.6-0.4-1.2-0.9-1.7c-0.6-0.5-1.4-0.7-2.1-0.6L7.9,5.6C7,5.7,6.4,6.1,6.1,6.7c-0.4,0.5-0.6,1.2-0.4,2
	l0.5,2.1H6c-0.7,0-1.3,0.6-1.3,1.3V13c0,0.7,0.6,1.3,1.3,1.3h0.5c0.3,1.4,1,2.6,2.2,3.4v1.7l-3.7,1.2c-1.1,0.3-2,1.2-2.4,2.3V23
	c-0.1,0.2-0.1,0.3-0.2,0.4c0,0.1,0,0.1-0.1,0.2c0,0.1-0.1,0.3-0.1,0.3c-0.1,0.3-0.1,0.4-0.1,0.6v3.2c0,0.3,0.2,0.4,0.4,0.4h18.2
	c0.3,0,0.4-0.2,0.4-0.4v-3.2c0-0.2,0-0.3-0.1-0.6C21.1,23.8,21.1,23.7,21.1,23.7z M17.3,11.6c0.3,0,0.4,0.2,0.4,0.4V13
	c0,0.3-0.2,0.4-0.4,0.4h-0.4V12l0.1-0.3H17.3z M6.8,7.1C7,6.8,7.5,6.5,7.9,6.4l5.2-0.9c0.5-0.1,1,0.1,1.4,0.3
	c0.3,0.3,0.6,0.9,0.6,1.4c0,0.3,0.2,0.4,0.4,0.4c0.4,0,0.8,0.2,1,0.5s0.3,0.7,0.3,1l-0.8,2.3H16c-0.3,0-0.4-0.2-0.4-0.4
	c0-0.7-0.6-1.3-1.3-1.3H9c-0.7,0-1.3,0.6-1.3,1.3c0,0.3-0.2,0.4-0.4,0.4H7.2L6.4,8.5C6.3,8,6.5,7.6,6.8,7.1z M6.4,13.4H6
	c-0.3,0-0.4-0.2-0.4-0.4v-0.9c0-0.3,0.2-0.4,0.4-0.4h0.3L6.4,12V13.4z M7.3,13.4v-0.9c0.7,0,1.3-0.6,1.3-1.3c0-0.3,0.2-0.4,0.4-0.4
	h5.2c0.3,0,0.4,0.2,0.4,0.4c0,0.7,0.6,1.3,1.3,1.3v0.9c0,2.4-1.9,4.4-4.4,4.4S7.3,15.7,7.3,13.4z M11.6,18.6c0.8,0,1.5-0.2,2.1-0.4
	v1.2c0,0.3-0.1,0.4-0.3,0.7C13,20.6,12.3,21,11.6,21s-1.4-0.3-1.8-0.9c-0.2-0.3-0.3-0.5-0.3-0.7v-1.2C10.2,18.4,10.9,18.6,11.6,18.6
	z M5.1,21.5l3.7-1.2C9,20.4,9,20.4,9.1,20.6c0.6,0.8,1.5,1.2,2.5,1.2c1,0,1.9-0.4,2.5-1.2c0.1-0.1,0.2-0.3,0.3-0.3l3.7,1.2
	c0.5,0.2,1,0.5,1.4,0.9C17.5,23,16,24.8,16,27.1v0.3H7.3v-0.3c0-2.3-1.5-4.1-3.5-4.7C4.2,22,4.6,21.7,5.1,21.5z M2.9,27.3v-2.8
	c0-0.3,0-0.4,0.1-0.7v-0.1c0.1-0.3,0.1-0.4,0.3-0.6c1.8,0.3,3.1,2,3.1,3.9v0.3C6.4,27.3,2.9,27.3,2.9,27.3z M20.4,27.3h-3.5v-0.3
	c0-1.9,1.4-3.5,3.2-3.9c0.1,0.2,0.2,0.4,0.3,0.6v0.1c0.1,0.3,0.1,0.4,0.1,0.7L20.4,27.3L20.4,27.3z"/>
<linearGradient id="SVGID_2_" gradientUnits="userSpaceOnUse" x1="4.3958" y1="23.222" x2="25.1708" y2="23.222" gradientTransform="matrix(1 0 0 -1 0 34)">
	<stop  offset="0" style="stop-color:#60B80D"/>
	<stop  offset="1" style="stop-color:#1C7CC9"/>
</linearGradient>
<path class="st2" d="M23,3.8c-2.1,0-4,0.9-5.3,2.5c-0.2,0.2-0.1,0.4,0.1,0.6c0.2,0.2,0.4,0.1,0.6-0.1c1.1-1.4,2.8-2.2,4.6-2.2
	c3.4,0,6.1,2.7,6.1,6.1s-2.7,6.1-6.1,6.1c-1.2,0-2.4-0.3-3.5-1.1c-0.2-0.2-0.4-0.1-0.6,0.1c-0.2,0.2-0.1,0.4,0.1,0.6
	c1.2,0.9,2.5,1.3,4,1.3c3.8,0,7-3.1,7-7S26.8,3.8,23,3.8z"/>
<linearGradient id="SVGID_3_" gradientUnits="userSpaceOnUse" x1="4.3958" y1="23.3697" x2="25.1708" y2="23.3697" gradientTransform="matrix(1 0 0 -1 0 34)">
	<stop  offset="0" style="stop-color:#60B80D"/>
	<stop  offset="1" style="stop-color:#1C7CC9"/>
</linearGradient>
<path class="st3" d="M20.4,12.6c-0.2,0-0.3,0.1-0.3,0.3l-0.5,1c-0.1,0.2,0,0.4,0.2,0.6c0.2,0.1,0.4,0,0.6-0.2l0.4-0.9l1-0.1l0.6,0.9
	l-0.4,0.9c-0.1,0.2,0,0.4,0.2,0.6h0.2c0.2,0,0.3-0.1,0.4-0.3l0.5-1c0.1-0.2,0.1-0.3,0-0.4l-0.7-1l1.9-4.1l1.1-0.2
	c0.2,0,0.3-0.1,0.3-0.3l0.5-1c0.1-0.2,0-0.4-0.2-0.6c-0.2-0.1-0.4,0-0.6,0.2l-0.4,0.9l-1,0.1L23.6,7L24,6.2c0.1-0.2,0-0.4-0.2-0.6
	c-0.2-0.1-0.4,0-0.6,0.2l-0.5,1c-0.1,0.2-0.1,0.3,0,0.4l0.7,1l-1.8,4.3L20.4,12.6z"/>
</svg>
